<mxfile host="app.diagrams.net" agent="Mozilla/5.0 (Windows NT 10.0; Win64; x64) AppleWebKit/537.36 (KHTML, like Gecko) Chrome/122.0.0.0 Safari/537.36" version="24.8.6">
  <diagram name="Trang-1" id="MubiFHbNewdn3Iz0mkor">
    <mxGraphModel grid="1" page="1" gridSize="10" guides="1" tooltips="1" connect="1" arrows="1" fold="1" pageScale="1" pageWidth="827" pageHeight="1169" math="0" shadow="0">
      <root>
        <mxCell id="0" />
        <mxCell id="1" parent="0" />
        <mxCell id="kowczynRN8Qi9ccpu8On-3" value="" style="edgeStyle=orthogonalEdgeStyle;rounded=0;orthogonalLoop=1;jettySize=auto;html=1;" edge="1" parent="1" source="kowczynRN8Qi9ccpu8On-1" target="kowczynRN8Qi9ccpu8On-2">
          <mxGeometry relative="1" as="geometry" />
        </mxCell>
        <mxCell id="kowczynRN8Qi9ccpu8On-1" value="Bắt Đầu" style="ellipse;whiteSpace=wrap;html=1;" vertex="1" parent="1">
          <mxGeometry x="354" y="40" width="120" height="80" as="geometry" />
        </mxCell>
        <mxCell id="kowczynRN8Qi9ccpu8On-5" value="" style="edgeStyle=orthogonalEdgeStyle;rounded=0;orthogonalLoop=1;jettySize=auto;html=1;" edge="1" parent="1" source="kowczynRN8Qi9ccpu8On-2" target="kowczynRN8Qi9ccpu8On-4">
          <mxGeometry relative="1" as="geometry" />
        </mxCell>
        <mxCell id="kowczynRN8Qi9ccpu8On-2" value="Nhập a,b" style="shape=parallelogram;perimeter=parallelogramPerimeter;whiteSpace=wrap;html=1;fixedSize=1;" vertex="1" parent="1">
          <mxGeometry x="354" y="210" width="120" height="60" as="geometry" />
        </mxCell>
        <mxCell id="kowczynRN8Qi9ccpu8On-7" value="" style="edgeStyle=orthogonalEdgeStyle;rounded=0;orthogonalLoop=1;jettySize=auto;html=1;" edge="1" parent="1" source="kowczynRN8Qi9ccpu8On-4" target="kowczynRN8Qi9ccpu8On-6">
          <mxGeometry relative="1" as="geometry" />
        </mxCell>
        <mxCell id="kowczynRN8Qi9ccpu8On-10" value="Sai" style="edgeLabel;html=1;align=center;verticalAlign=middle;resizable=0;points=[];" connectable="0" vertex="1" parent="kowczynRN8Qi9ccpu8On-7">
          <mxGeometry x="0.2286" relative="1" as="geometry">
            <mxPoint as="offset" />
          </mxGeometry>
        </mxCell>
        <mxCell id="kowczynRN8Qi9ccpu8On-9" value="" style="edgeStyle=orthogonalEdgeStyle;rounded=0;orthogonalLoop=1;jettySize=auto;html=1;" edge="1" parent="1" source="kowczynRN8Qi9ccpu8On-4" target="kowczynRN8Qi9ccpu8On-8">
          <mxGeometry relative="1" as="geometry" />
        </mxCell>
        <mxCell id="kowczynRN8Qi9ccpu8On-11" value="Đúng" style="edgeLabel;html=1;align=center;verticalAlign=middle;resizable=0;points=[];" connectable="0" vertex="1" parent="kowczynRN8Qi9ccpu8On-9">
          <mxGeometry x="-0.05" y="-2" relative="1" as="geometry">
            <mxPoint as="offset" />
          </mxGeometry>
        </mxCell>
        <mxCell id="kowczynRN8Qi9ccpu8On-4" value="a = 0" style="rhombus;whiteSpace=wrap;html=1;" vertex="1" parent="1">
          <mxGeometry x="374" y="340" width="80" height="80" as="geometry" />
        </mxCell>
        <mxCell id="kowczynRN8Qi9ccpu8On-17" style="edgeStyle=orthogonalEdgeStyle;rounded=0;orthogonalLoop=1;jettySize=auto;html=1;entryX=1;entryY=0.5;entryDx=0;entryDy=0;" edge="1" parent="1" source="kowczynRN8Qi9ccpu8On-6" target="kowczynRN8Qi9ccpu8On-16">
          <mxGeometry relative="1" as="geometry">
            <Array as="points">
              <mxPoint x="570" y="630" />
            </Array>
          </mxGeometry>
        </mxCell>
        <mxCell id="kowczynRN8Qi9ccpu8On-6" value="1 nghiệm = -a/b" style="shape=parallelogram;perimeter=parallelogramPerimeter;whiteSpace=wrap;html=1;fixedSize=1;" vertex="1" parent="1">
          <mxGeometry x="514" y="350" width="120" height="60" as="geometry" />
        </mxCell>
        <mxCell id="kowczynRN8Qi9ccpu8On-13" value="" style="edgeStyle=orthogonalEdgeStyle;rounded=0;orthogonalLoop=1;jettySize=auto;html=1;" edge="1" parent="1" source="kowczynRN8Qi9ccpu8On-8" target="kowczynRN8Qi9ccpu8On-12">
          <mxGeometry relative="1" as="geometry" />
        </mxCell>
        <mxCell id="kowczynRN8Qi9ccpu8On-15" value="" style="edgeStyle=orthogonalEdgeStyle;rounded=0;orthogonalLoop=1;jettySize=auto;html=1;" edge="1" parent="1" source="kowczynRN8Qi9ccpu8On-8" target="kowczynRN8Qi9ccpu8On-14">
          <mxGeometry relative="1" as="geometry" />
        </mxCell>
        <mxCell id="kowczynRN8Qi9ccpu8On-8" value="b=0" style="rhombus;whiteSpace=wrap;html=1;" vertex="1" parent="1">
          <mxGeometry x="214" y="340" width="80" height="80" as="geometry" />
        </mxCell>
        <mxCell id="kowczynRN8Qi9ccpu8On-19" style="edgeStyle=orthogonalEdgeStyle;rounded=0;orthogonalLoop=1;jettySize=auto;html=1;entryX=0;entryY=0.5;entryDx=0;entryDy=0;" edge="1" parent="1" source="kowczynRN8Qi9ccpu8On-12" target="kowczynRN8Qi9ccpu8On-16">
          <mxGeometry relative="1" as="geometry">
            <Array as="points">
              <mxPoint x="90" y="630" />
            </Array>
          </mxGeometry>
        </mxCell>
        <mxCell id="kowczynRN8Qi9ccpu8On-12" value="phương trình&lt;div&gt;vô số nghiệm&lt;/div&gt;" style="shape=parallelogram;perimeter=parallelogramPerimeter;whiteSpace=wrap;html=1;fixedSize=1;" vertex="1" parent="1">
          <mxGeometry x="34" y="350" width="120" height="60" as="geometry" />
        </mxCell>
        <mxCell id="kowczynRN8Qi9ccpu8On-18" style="edgeStyle=orthogonalEdgeStyle;rounded=0;orthogonalLoop=1;jettySize=auto;html=1;entryX=0;entryY=0.5;entryDx=0;entryDy=0;" edge="1" parent="1" source="kowczynRN8Qi9ccpu8On-14" target="kowczynRN8Qi9ccpu8On-16">
          <mxGeometry relative="1" as="geometry">
            <Array as="points">
              <mxPoint x="254" y="630" />
            </Array>
          </mxGeometry>
        </mxCell>
        <mxCell id="kowczynRN8Qi9ccpu8On-14" value="phương trình&lt;div&gt;vô nghiệm&lt;/div&gt;" style="shape=parallelogram;perimeter=parallelogramPerimeter;whiteSpace=wrap;html=1;fixedSize=1;" vertex="1" parent="1">
          <mxGeometry x="194" y="510" width="120" height="60" as="geometry" />
        </mxCell>
        <mxCell id="kowczynRN8Qi9ccpu8On-16" value="End" style="ellipse;whiteSpace=wrap;html=1;" vertex="1" parent="1">
          <mxGeometry x="374" y="590" width="120" height="80" as="geometry" />
        </mxCell>
      </root>
    </mxGraphModel>
  </diagram>
</mxfile>
